<?xml version="1.0" standalone="no"?>
<!DOCTYPE svg PUBLIC "-//W3C//DTD SVG 1.1//EN" "http://www.w3.org/Graphics/SVG/1.1/DTD/svg11.dtd" >
<svg xmlns="http://www.w3.org/2000/svg">
<metadata>Generated by IcoMoon</metadata>
<defs>
<font id="pcmsIcons" horiz-adv-x="1024">
<font-face units-per-em="1024" ascent="960" descent="-64" />
<missing-glyph horiz-adv-x="1024" />
<glyph unicode="&#x20;" horiz-adv-x="512" d="" />
<glyph unicode="&#xe900;" glyph-name="PCMS" horiz-adv-x="11520" d="M11196.936 279.169l51.575 17.512c4.186-13.171 9.343-25.893 15.473-38.167s13.529-24.546 22.2-36.819c8.671-12.273 18.911-22.152 30.721-29.635s24.143-11.225 37-11.225c23.62 0 41.335 7.184 53.145 21.553s17.715 33.826 17.715 58.372c0 34.425-30.646 78.578-91.939 132.46l-39.018 34.125c-29.6 26.043-51.949 49.317-67.048 69.822s-22.648 43.48-22.648 68.924c0 40.412 12.258 71.768 36.775 94.069s57.256 33.452 98.217 33.452c19.434 0 37.074-3.742 52.921-11.225s29.151-17.886 39.915-31.207c10.764-13.321 19.808-27.689 27.133-43.106s13.23-32.404 17.715-50.964l-59.648-18.41c-2.691 16.763-6.951 32.629-12.782 47.596s-14.8 28.513-26.909 40.636c-12.109 12.124-25.937 18.185-41.484 18.185-20.032 0-35.953-6.81-47.763-20.43s-17.715-31.207-17.715-52.76c0-17.961 5.755-35.023 17.267-51.188s28.179-33.527 50.006-52.086l42.606-36.819c13.754-11.974 24.293-21.328 31.618-28.064s16.594-16.314 27.806-28.737c11.212-12.423 19.658-23.648 25.339-33.676s10.838-22.077 15.473-36.146c4.634-14.069 7.101-28.438 7.4-43.106 0-40.112-12.632-71.768-37.897-94.967s-58.228-34.799-98.89-34.799c-39.467 0-72.43 13.845-98.89 41.534s-44.923 62.787-55.387 105.295v0zM10839.496 144.464v537.923h67.272v-50.739c14.351 20.954 31.543 36.67 51.575 47.147s40.812 15.716 62.339 15.716c26.61 0 50.006-11.15 70.187-33.452s30.272-53.657 30.272-94.069v-422.526h-68.169v423.873c0 26.642-5.232 46.024-15.697 58.148s-24.218 18.185-41.26 18.185c-14.052 0-29.076-4.864-45.072-14.593s-30.721-22.975-44.175-39.738v-445.875h-67.272zM10521.075 427.345v-27.839c0-84.416 4.933-142.488 14.8-174.219s29.899-47.596 60.096-47.596c30.198 0 50.23 15.865 60.096 47.596s14.8 89.803 14.8 174.219v27.839c0 28.438-0.299 52.385-0.897 71.843s-1.869 38.092-3.812 55.903c-1.943 17.811-4.634 32.105-8.073 42.881s-7.923 20.281-13.454 28.513c-5.531 8.232-12.258 14.069-20.182 17.512s-17.416 5.164-28.479 5.164c-11.063 0-20.555-1.721-28.479-5.164s-14.725-9.28-20.406-17.512c-5.681-8.232-10.166-17.661-13.454-28.288s-5.905-24.995-7.848-43.106c-1.943-18.11-3.214-36.745-3.812-55.903s-0.897-43.106-0.897-71.843v0zM10453.803 399.506v27.839c0 23.948 0.15 42.282 0.448 55.005s1.271 30.084 2.915 52.086c1.644 22.002 4.186 39.139 7.624 51.413s8.596 26.342 15.473 42.208c6.877 15.865 15.323 27.914 25.339 36.146s22.648 15.341 37.897 21.328c15.248 5.987 32.739 8.98 52.472 8.98s37.224-2.993 52.472-8.98c15.248-5.987 27.881-13.096 37.897-21.328s18.462-20.281 25.339-36.146c6.877-15.865 12.034-29.934 15.473-42.208s5.98-29.411 7.624-51.413c1.644-22.002 2.616-39.364 2.915-52.086s0.448-31.057 0.448-55.005v-27.839c0-20.056-0.075-35.173-0.224-45.351s-0.598-24.322-1.345-42.432c-0.747-18.11-1.943-32.105-3.588-41.983s-4.111-22.151-7.4-36.819c-3.289-14.668-7.25-26.043-11.885-34.125s-10.539-16.988-17.715-26.717c-7.176-9.729-15.398-17.063-24.666-22.002s-20.256-9.13-32.963-12.572c-12.707-3.442-26.834-5.164-42.381-5.164s-29.674 1.721-42.381 5.164c-12.707 3.442-23.695 7.633-32.963 12.572s-17.491 12.273-24.666 22.002c-7.176 9.729-13.081 18.634-17.715 26.717s-8.596 19.457-11.885 34.125c-3.289 14.668-5.755 26.941-7.4 36.819s-2.84 23.873-3.588 41.983c-0.747 18.11-1.196 32.254-1.345 42.432s-0.224 25.295-0.224 45.351v0zM10283.828 144.464v537.923h67.272v-537.923h-67.272zM10283.828 805.418v80.374h67.272v-80.374h-67.272zM10052.861 271.536v373.134h-73.102v37.717h73.102v190.833h67.272v-190.833h86.108v-37.717h-86.108v-369.991c0-12.872 0.149-22.975 0.448-30.309s1.271-15.267 2.915-23.798c1.644-8.531 4.036-14.892 7.176-19.083s7.624-7.708 13.454-10.552c5.83-2.844 13.081-4.266 21.751-4.266 14.65 0 27.806 1.197 39.466 3.592v-46.249c-20.032-5.089-39.466-7.633-58.303-7.633-16.743 0-31.095 2.619-43.054 7.858s-21.153 11.749-27.582 19.532c-6.428 7.783-11.511 18.11-15.248 30.982s-6.054 24.92-6.951 36.146c-0.897 11.226-1.345 24.771-1.345 40.636v0zM9628.149 259.862v422.526h68.169v-423.873c0-26.642 5.232-46.024 15.697-58.148s24.218-18.185 41.26-18.185c14.052 0 29.076 4.864 45.072 14.593s30.721 22.975 44.175 39.738v445.875h67.272v-537.923h-67.272v50.739c-14.351-20.954-31.543-36.67-51.575-47.147s-40.812-15.716-62.339-15.716c-26.61 0-50.006 11.15-70.187 33.452s-30.272 53.657-30.272 94.069v0zM9445.169 144.464v772.76h67.272v-772.76h-67.272zM9115.087 427.345v-27.839c0-84.416 4.933-142.488 14.8-174.219s29.899-47.596 60.096-47.596c30.198 0 50.23 15.865 60.096 47.596s14.8 89.803 14.8 174.219v27.839c0 28.438-0.299 52.385-0.897 71.843s-1.869 38.092-3.812 55.903c-1.943 17.811-4.634 32.105-8.073 42.881s-7.923 20.281-13.454 28.513c-5.531 8.232-12.258 14.069-20.182 17.512s-17.416 5.164-28.479 5.164c-11.063 0-20.555-1.721-28.479-5.164s-14.725-9.28-20.406-17.512c-5.681-8.232-10.166-17.661-13.454-28.288s-5.905-24.995-7.848-43.106c-1.943-18.11-3.214-36.745-3.812-55.903s-0.897-43.106-0.897-71.843v0zM9047.815 399.506v27.839c0 23.948 0.15 42.282 0.448 55.005s1.271 30.084 2.915 52.086c1.644 22.002 4.186 39.139 7.624 51.413s8.596 26.342 15.473 42.208c6.877 15.865 15.323 27.914 25.339 36.146s22.648 15.341 37.897 21.328c15.248 5.987 32.739 8.98 52.472 8.98s37.224-2.993 52.472-8.98c15.248-5.987 27.881-13.096 37.897-21.328s18.462-20.281 25.339-36.146c6.877-15.865 12.034-29.934 15.473-42.208s5.98-29.411 7.624-51.413c1.644-22.002 2.616-39.364 2.915-52.086s0.448-31.057 0.448-55.005v-27.839c0-20.056-0.075-35.173-0.224-45.351s-0.598-24.322-1.345-42.432c-0.747-18.11-1.943-32.105-3.588-41.983s-4.111-22.151-7.4-36.819c-3.289-14.668-7.25-26.043-11.885-34.125s-10.539-16.988-17.715-26.717c-7.176-9.729-15.398-17.063-24.666-22.002s-20.256-9.13-32.963-12.572c-12.707-3.442-26.834-5.164-42.381-5.164s-29.674 1.721-42.381 5.164c-12.707 3.442-23.695 7.633-32.963 12.572s-17.491 12.273-24.666 22.002c-7.176 9.729-13.081 18.634-17.715 26.717s-8.596 19.457-11.885 34.125c-3.289 14.668-5.755 26.941-7.4 36.819s-2.84 23.873-3.588 41.983c-0.747 18.11-1.196 32.254-1.345 42.432s-0.224 25.295-0.224 45.351v0zM8605.612 330.806l60.096 17.512c2.392-21.553 6.652-41.459 12.782-59.719s14.426-35.248 24.891-50.964c10.465-15.716 24.293-28.064 41.484-37.044s36.701-13.471 58.527-13.471c34.982 0 62.040 9.729 81.175 29.186s28.703 46.997 28.703 82.619c0 29.635-8.745 58.222-26.236 85.762s-43.278 59.27-77.363 95.192l-120.641 127.072c-26.311 27.839-46.492 53.882-60.545 78.129s-21.079 49.691-21.079 76.333c0 50.59 16.594 91.001 49.781 121.235s75.793 45.351 127.817 45.351c50.529 0 91.191-14.294 121.987-42.881s51.276-70.121 61.442-124.602l1.345-7.184-57.406-17.961-0.897 6.286c-5.98 38.616-19.808 70.196-41.484 94.743s-50.005 36.819-84.987 36.819c-34.085 0-61.218-8.681-81.399-26.043s-30.272-42.956-30.272-76.782c0-20.356 5.456-40.412 16.37-60.168s26.535-40.711 46.866-62.862l113.466-123.48c2.99-3.293 10.464-11.45 22.424-24.471s19.808-21.628 23.545-25.819c3.737-4.191 10.614-12.273 20.63-24.247s16.893-21.029 20.63-27.166c3.737-6.137 9.044-14.818 15.921-26.043s11.586-21.029 14.127-29.411c2.541-8.382 5.008-18.11 7.4-29.186s3.588-22.002 3.588-32.778c0-55.080-16.967-97.586-50.903-127.521s-77.811-44.902-131.629-44.902c-27.507 0-52.472 5.313-74.896 15.94s-41.335 25.22-56.733 43.779c-15.398 18.559-27.955 39.513-37.672 62.862s-16.669 48.643-20.854 75.884v0zM8221.264 271.536v373.134h-73.102v37.717h73.102v190.833h67.272v-190.833h86.108v-37.717h-86.108v-369.991c0-12.872 0.15-22.975 0.448-30.309s1.271-15.267 2.915-23.798c1.644-8.531 4.036-14.892 7.176-19.083s7.624-7.708 13.454-10.552c5.83-2.844 13.081-4.266 21.751-4.266 14.65 0 27.806 1.197 39.466 3.592v-46.249c-20.032-5.089-39.466-7.633-58.303-7.633-16.743 0-31.095 2.619-43.054 7.858s-21.153 11.749-27.582 19.532c-6.428 7.783-11.511 18.11-15.248 30.982s-6.054 24.92-6.951 36.146c-0.897 11.226-1.345 24.771-1.345 40.636v0zM7814.492 144.464v537.923h67.272v-50.739c14.351 20.954 31.543 36.67 51.575 47.147s40.812 15.716 62.339 15.716c26.61 0 50.006-11.15 70.187-33.452s30.272-53.657 30.272-94.069v-422.526h-68.169v423.873c0 26.642-5.232 46.024-15.697 58.148s-24.218 18.185-41.26 18.185c-14.052 0-29.076-4.864-45.072-14.593s-30.721-22.975-44.175-39.738v-445.875h-67.272zM7437.319 392.322v74.986c0.299 37.418 2.99 69.822 8.073 97.212s11.735 49.317 19.957 65.781c8.222 16.464 18.836 29.56 31.842 39.289s26.386 16.314 40.139 19.757c13.754 3.442 29.899 5.164 48.436 5.164 48.137 0 82.745-17.063 103.823-51.188s31.618-88.007 31.618-161.646c0-22.451-0.299-40.861-0.897-55.229h-215.271v-82.17c0-35.323 1.719-64.284 5.158-86.885s8.895-39.588 16.37-50.964c7.475-11.375 15.697-19.008 24.666-22.9s20.331-5.837 34.085-5.837c20.032 0 36.85 10.103 50.454 30.309s20.555 53.957 20.854 101.254h62.787c-1.794-20.356-4.186-38.466-7.176-54.331s-7.699-31.731-14.127-47.596c-6.428-15.865-14.351-29.036-23.77-39.514s-21.602-19.008-36.551-25.594c-14.949-6.586-32.141-9.878-51.575-9.878-37.972 0-67.496 7.558-88.575 22.675s-36.551 41.459-46.418 79.027c-9.867 37.568-14.501 90.327-13.903 158.279v0zM7505.488 459.674h148.896c-0.299 11.974-0.299 24.097 0 36.37s0.15 24.621-0.448 37.044c-0.598 12.423-1.42 24.322-2.467 35.697s-3.065 21.927-6.054 31.656c-2.99 9.729-6.727 18.185-11.212 25.37s-10.614 12.872-18.388 17.063c-7.774 4.191-16.743 6.286-26.909 6.286-16.444 0-29.973-2.993-40.588-8.98s-18.836-13.021-24.666-21.104c-5.83-8.082-10.091-21.702-12.782-40.861s-4.261-35.996-4.709-50.514c-0.449-14.518-0.673-37.193-0.673-68.026v0zM6843.979 144.464v537.923h67.721v-49.841c34.982 41.31 74.747 61.964 119.296 61.964 18.238 0 35.878-5.688 52.921-17.063s29.301-26.043 36.775-44.004c17.64 20.056 36.925 35.248 57.854 45.575s40.064 15.491 57.406 15.491c27.507 0 51.5-9.579 71.981-28.737s30.721-43.106 30.721-71.843v-449.467h-67.272v435.547c0 22.451-5.008 38.84-15.024 49.167s-23.396 15.491-40.139 15.491c-27.806 0-56.209-14.518-85.211-43.555v-456.651h-67.272v435.996c0 42.807-18.986 64.21-56.957 64.21-15.248 0-31.319-4.789-48.212-14.369s-32.664-22.6-47.315-39.065v-446.773h-67.272zM6466.806 392.322v74.986c0.299 37.418 2.99 69.822 8.073 97.212s11.735 49.317 19.957 65.781c8.222 16.464 18.836 29.56 31.842 39.289s26.386 16.314 40.139 19.757c13.754 3.442 29.899 5.164 48.436 5.164 48.137 0 82.745-17.063 103.823-51.188s31.618-88.007 31.618-161.646c0-22.451-0.299-40.861-0.897-55.229h-215.271v-82.17c0-35.323 1.719-64.284 5.158-86.885s8.895-39.588 16.37-50.964c7.475-11.375 15.697-19.008 24.666-22.9s20.331-5.837 34.085-5.837c20.032 0 36.85 10.103 50.454 30.309s20.555 53.957 20.854 101.254h62.787c-1.794-20.356-4.186-38.466-7.176-54.331s-7.699-31.731-14.127-47.596c-6.428-15.865-14.351-29.036-23.769-39.514s-21.602-19.008-36.551-25.594c-14.949-6.586-32.141-9.878-51.575-9.878-37.972 0-67.496 7.558-88.575 22.675s-36.551 41.459-46.418 79.027c-9.867 37.568-14.501 90.327-13.903 158.279v0zM6534.975 459.674h148.896c-0.299 11.974-0.299 24.097 0 36.37s0.15 24.621-0.448 37.044c-0.598 12.423-1.42 24.322-2.467 35.697s-3.065 21.927-6.054 31.656c-2.99 9.729-6.727 18.185-11.212 25.37s-10.614 12.872-18.388 17.063c-7.774 4.191-16.743 6.286-26.909 6.286-16.444 0-29.973-2.993-40.588-8.98s-18.836-13.021-24.666-21.104c-5.83-8.082-10.091-21.702-12.782-40.861s-4.261-35.996-4.709-50.514c-0.448-14.518-0.673-37.193-0.673-68.026v0zM6129.548 238.758c-1.495-6.885 2.541-11.974 12.109-15.267s34.084-8.98 73.551-17.063c12.259-2.395 21.826-4.34 28.703-5.837 24.517-5.089 45.595-10.552 63.236-16.389s34.159-13.171 49.557-22.002c15.398-8.831 26.984-19.607 34.757-32.329s11.661-27.315 11.661-43.779c0-14.967-2.467-28.513-7.4-40.636s-11.287-22.226-19.060-30.309c-7.774-8.082-17.266-15.117-28.479-21.104s-22.2-10.627-32.963-13.92c-10.764-3.293-22.499-5.912-35.206-7.858s-23.545-3.143-32.515-3.592c-8.97-0.449-18.089-0.674-27.357-0.674-119.297 0-178.944 23.498-178.944 70.496 0 30.234 9.717 57.025 29.151 80.374s43.204 42.208 71.308 56.576c-4.485 0.898-11.735 2.769-21.751 5.613s-21.228 7.259-33.636 13.246c-12.408 5.987-18.612 11.824-18.612 17.512 0 3.892 0.523 8.157 1.57 12.797s2.691 9.579 4.933 14.818c2.242 5.239 4.56 10.327 6.951 15.267s5.382 10.327 8.97 16.165c3.588 5.837 6.727 10.926 9.418 15.267s5.98 9.355 9.867 15.042c3.887 5.688 6.877 9.878 8.97 12.572s4.784 6.286 8.073 10.776c3.289 4.49 5.083 7.035 5.382 7.633-21.228 19.158-37 43.854-47.315 74.088s-15.473 61.665-15.473 94.294c0 17.362 1.644 34.724 4.933 52.086s8.895 34.649 16.818 51.862c7.923 17.212 17.64 32.404 29.151 45.575s26.161 23.798 43.951 31.88c17.79 8.082 37.598 12.123 59.424 12.123 28.703 0 52.547-6.96 71.533-20.879s37.448-34.799 55.387-62.638c5.681 9.878 10.689 18.11 15.024 24.696s10.091 14.369 17.267 23.349c7.176 8.98 14.949 16.389 23.321 22.226s17.042 9.804 26.012 11.899v-65.108c-11.362-2.095-23.171-7.109-35.43-15.042s-23.022-17.137-32.291-27.615c11.362-31.731 17.042-58.821 17.042-81.272 0-21.553-1.794-41.908-5.382-61.066s-9.343-37.194-17.267-54.107c-7.923-16.913-17.864-31.506-29.824-43.779s-26.759-21.927-44.4-28.962c-17.64-7.035-37.373-10.552-59.199-10.552-25.713 0-47.24 3.592-64.581 10.776-16.444-31.132-26.759-56.875-30.945-77.231v0zM6268.578 145.811l-95.975 20.655c-14.949-11.076-29.973-27.839-45.072-50.29s-22.648-41.609-22.648-57.474c0-6.885 1.57-12.872 4.709-17.961s8.073-9.13 14.8-12.123c6.727-2.993 13.006-5.388 18.836-7.184s13.978-3.068 24.442-3.817c10.465-0.748 18.388-1.197 23.77-1.347s13.305-0.225 23.769-0.225h5.83c79.232 0 118.847 19.308 118.847 57.923 0 21.254-5.531 37.343-16.594 48.269s-29.301 18.784-54.715 23.573v0zM6225.523 354.604c14.949 0 27.955 3.442 39.018 10.327s19.584 15.267 25.563 25.145c5.98 9.878 10.764 21.553 14.351 35.023s5.905 25.444 6.951 35.921c1.046 10.477 1.57 21.104 1.57 31.88 0 10.477-0.448 21.029-1.345 31.656s-3.214 23.199-6.951 37.717c-3.737 14.518-8.521 27.166-14.351 37.942s-14.351 20.056-25.563 27.839c-11.212 7.783-24.293 11.674-39.242 11.674-12.558 0-23.844-2.619-33.86-7.858s-18.089-12.348-24.218-21.328c-6.129-8.98-11.287-18.485-15.473-28.513s-7.25-20.954-9.194-32.778c-1.943-11.824-3.289-22.077-4.036-30.758s-1.121-17.212-1.121-25.594c0-11.076 0.448-21.777 1.345-32.105s3.214-22.301 6.951-35.921c3.737-13.62 8.596-25.295 14.576-35.023s14.576-18.036 25.788-24.92c11.212-6.885 24.293-10.327 39.242-10.327v0zM5933.114 144.464l-8.521 65.108c-14.351-25.145-32.066-44.303-53.145-57.474s-41.185-19.757-60.321-19.757c-27.806 0-52.472 11.001-73.999 33.003s-32.291 50.814-32.291 86.436c0 9.579 0.15 17.287 0.448 23.124s1.121 13.396 2.467 22.675c1.345 9.28 3.289 17.063 5.83 23.349s6.279 13.994 11.212 23.124c4.933 9.13 10.988 17.212 18.163 24.247s16.145 15.117 26.909 24.247c10.764 9.13 23.171 17.811 37.224 26.043s30.571 17.063 49.557 26.492c18.986 9.429 39.989 18.934 63.012 28.513v4.49c0 30.533-1.345 56.651-4.036 78.354s-5.98 38.466-9.867 50.29c-3.887 11.824-8.895 21.029-15.024 27.615s-11.885 10.702-17.267 12.348c-5.382 1.646-11.959 2.47-19.733 2.47-8.073 0-15.248-1.123-21.527-3.368s-13.006-6.586-20.182-13.022c-7.176-6.436-13.155-16.913-17.939-31.431s-7.774-32.703-8.97-54.556v-3.143h-69.963c3.588 46.997 17.416 83.891 41.484 110.683s55.686 40.187 94.854 40.187c21.826 0 41.111-3.517 57.854-10.552s29.973-16.015 39.691-26.941c9.717-10.926 17.566-24.022 23.545-39.289s10.016-30.084 12.109-44.453c2.093-14.369 3.139-29.785 3.139-46.249v-258.634c0-18.859 0.673-38.615 2.018-59.27s2.766-36.52 4.261-47.596l1.794-17.063h-62.787zM5919.659 254.024v189.485c-21.826-15.267-39.018-27.54-51.575-36.819s-25.788-20.131-39.691-32.554c-13.903-12.423-24.367-23.723-31.394-33.901s-12.856-21.777-17.491-34.799c-4.634-13.022-6.951-26.716-6.951-41.085 0-25.744 5.382-44.827 16.145-57.25s23.47-18.634 38.121-18.634c17.042 0 34.309 6.137 51.8 18.41s31.169 27.989 41.036 47.147v0zM5339.325 144.464v537.923h67.272v-50.739c14.351 20.954 31.543 36.67 51.575 47.147s40.812 15.716 62.339 15.716c26.61 0 50.006-11.15 70.187-33.452s30.272-53.657 30.272-94.069v-422.526h-68.169v423.873c0 26.642-5.232 46.024-15.697 58.148s-24.218 18.185-41.26 18.185c-14.052 0-29.076-4.864-45.072-14.593s-30.721-22.975-44.175-39.738v-445.875h-67.272zM5185.047 144.464l-8.521 65.108c-14.351-25.145-32.066-44.303-53.145-57.474s-41.185-19.757-60.321-19.757c-27.806 0-52.472 11.001-73.999 33.003s-32.291 50.814-32.291 86.436c0 9.579 0.15 17.287 0.448 23.124s1.121 13.396 2.467 22.675c1.345 9.28 3.289 17.063 5.83 23.349s6.279 13.994 11.212 23.124c4.933 9.13 10.988 17.212 18.163 24.247s16.145 15.117 26.909 24.247c10.764 9.13 23.171 17.811 37.224 26.043s30.571 17.063 49.557 26.492c18.986 9.429 39.989 18.934 63.012 28.513v4.49c0 30.533-1.345 56.651-4.036 78.354s-5.98 38.466-9.867 50.29c-3.887 11.824-8.895 21.029-15.024 27.615s-11.885 10.702-17.267 12.348c-5.382 1.646-11.959 2.47-19.733 2.47-8.073 0-15.248-1.123-21.527-3.368s-13.006-6.586-20.182-13.022c-7.176-6.436-13.155-16.913-17.939-31.431s-7.774-32.703-8.97-54.556v-3.143h-69.963c3.588 46.997 17.416 83.891 41.484 110.683s55.686 40.187 94.854 40.187c21.826 0 41.111-3.517 57.854-10.552s29.973-16.015 39.691-26.941c9.717-10.926 17.565-24.022 23.545-39.289s10.016-30.084 12.109-44.453c2.093-14.369 3.139-29.785 3.139-46.249v-258.634c0-18.859 0.673-38.615 2.018-59.27s2.766-36.52 4.261-47.596l1.794-17.063h-62.787zM5171.593 254.024v189.485c-21.826-15.267-39.018-27.54-51.575-36.819s-25.788-20.131-39.691-32.554c-13.903-12.423-24.367-23.723-31.394-33.901s-12.856-21.777-17.491-34.799c-4.634-13.022-6.951-26.716-6.951-41.085 0-25.744 5.382-44.827 16.145-57.25s23.47-18.634 38.121-18.634c17.042 0 34.309 6.137 51.8 18.41s31.169 27.989 41.036 47.147v0zM4392.133 144.464v772.76h83.866l148.896-667.24c18.238 87.409 42.456 194.349 72.654 320.823s55.612 241.945 76.242 346.417h83.866v-772.76h-60.545v618.297l-142.617-618.297h-59.199l-142.617 617.848v-617.848h-60.545zM3821.216 392.322v74.986c0.299 37.418 2.99 69.822 8.073 97.212s11.735 49.317 19.957 65.781c8.222 16.464 18.836 29.56 31.842 39.289s26.386 16.314 40.139 19.757c13.754 3.442 29.899 5.164 48.436 5.164 48.137 0 82.745-17.063 103.823-51.188s31.618-88.007 31.618-161.646c0-22.451-0.299-40.861-0.897-55.229h-215.271v-82.17c0-35.323 1.719-64.284 5.158-86.885s8.895-39.588 16.37-50.964c7.475-11.375 15.697-19.008 24.666-22.9s20.331-5.837 34.085-5.837c20.032 0 36.85 10.103 50.454 30.309s20.555 53.957 20.854 101.254h62.787c-1.794-20.356-4.186-38.466-7.176-54.331s-7.699-31.731-14.127-47.596c-6.428-15.865-14.351-29.036-23.769-39.514s-21.602-19.008-36.551-25.594c-14.949-6.586-32.141-9.878-51.575-9.878-37.972 0-67.496 7.558-88.575 22.675s-36.551 41.459-46.418 79.027c-9.867 37.568-14.501 90.327-13.903 158.279v0zM3889.386 459.674h148.896c-0.299 11.974-0.299 24.097 0 36.37s0.15 24.621-0.448 37.044c-0.598 12.423-1.42 24.322-2.467 35.697s-3.065 21.927-6.054 31.656c-2.99 9.729-6.727 18.185-11.212 25.37s-10.614 12.872-18.388 17.063c-7.774 4.191-16.743 6.286-26.909 6.286-16.444 0-29.973-2.993-40.588-8.98s-18.836-13.021-24.666-21.104c-5.83-8.082-10.091-21.702-12.782-40.861s-4.261-35.996-4.709-50.514c-0.448-14.518-0.673-37.193-0.673-68.026v0zM3597.873 144.464v537.923h67.272v-75.884c8.372 27.839 23.47 48.718 45.297 62.638s44.399 21.179 67.721 21.777v-67.802c-3.289 1.197-6.727 1.796-10.315 1.796-68.468 0-102.702-26.342-102.702-79.027v-401.422h-67.272zM3443.595 144.464l-8.521 65.108c-14.351-25.145-32.066-44.303-53.145-57.474s-41.185-19.757-60.321-19.757c-27.806 0-52.472 11.001-73.999 33.003s-32.291 50.814-32.291 86.436c0 9.579 0.15 17.287 0.448 23.124s1.121 13.396 2.467 22.675c1.345 9.28 3.289 17.063 5.83 23.349s6.279 13.994 11.212 23.124c4.933 9.13 10.988 17.212 18.163 24.247s16.145 15.117 26.909 24.247c10.764 9.13 23.171 17.811 37.224 26.043s30.571 17.063 49.557 26.492c18.986 9.429 39.989 18.934 63.012 28.513v4.49c0 30.533-1.345 56.651-4.036 78.354s-5.98 38.466-9.867 50.29c-3.887 11.824-8.895 21.029-15.024 27.615s-11.885 10.702-17.267 12.348c-5.382 1.646-11.959 2.47-19.733 2.47-8.073 0-15.248-1.123-21.527-3.368s-13.006-6.586-20.182-13.022c-7.176-6.436-13.155-16.913-17.939-31.431s-7.774-32.703-8.97-54.556v-3.143h-69.963c3.588 46.997 17.416 83.891 41.485 110.683s55.686 40.187 94.854 40.187c21.826 0 41.111-3.517 57.854-10.552s29.973-16.015 39.691-26.941c9.717-10.926 17.565-24.022 23.545-39.289s10.016-30.084 12.109-44.453c2.093-14.369 3.139-29.785 3.139-46.249v-258.634c0-18.859 0.673-38.615 2.018-59.27s2.766-36.52 4.261-47.596l1.794-17.063h-62.787zM3430.141 254.024v189.485c-21.826-15.267-39.018-27.54-51.575-36.819s-25.788-20.131-39.691-32.554c-13.903-12.423-24.367-23.723-31.394-33.901s-12.856-21.777-17.491-34.799c-4.634-13.022-6.951-26.716-6.951-41.085 0-25.744 5.382-44.827 16.145-57.25s23.47-18.634 38.121-18.634c17.042 0 34.309 6.137 51.8 18.41s31.169 27.989 41.036 47.147v0zM2769.977 368.524v323.742c0 27.54 1.794 52.535 5.382 74.986s9.941 43.854 19.060 64.21c9.119 20.356 20.854 37.493 35.206 51.413s32.664 24.92 54.939 33.003c22.275 8.082 48.062 12.123 77.363 12.123 120.792 0 181.186-78.577 181.186-235.734v-31.431h-65.030v46.698c0 24.846-1.869 46.847-5.606 66.006s-9.941 36.445-18.612 51.862c-8.671 15.416-20.705 27.24-36.103 35.472s-34.010 12.348-55.836 12.348c-19.733 0-36.925-2.769-51.575-8.307s-26.535-13.096-35.654-22.675c-9.119-9.579-16.444-21.553-21.976-35.921s-9.343-29.411-11.436-45.126c-2.093-15.716-3.139-33.601-3.139-53.658v-354.275c0-25.444 1.794-47.521 5.382-66.23s9.792-35.921 18.612-51.637c8.82-15.716 21.602-27.689 38.345-35.921s37.224-12.348 61.442-12.348c21.826 0 40.438 4.116 55.836 12.348s27.432 20.131 36.103 35.697c8.671 15.566 14.875 32.928 18.612 52.086s5.606 41.16 5.606 66.006v52.984h65.030v-37.717c0-27.241-1.644-52.086-4.933-74.537s-9.194-43.929-17.715-64.434c-8.521-20.505-19.509-37.717-32.963-51.637s-30.796-24.995-52.024-33.227c-21.228-8.232-45.745-12.348-73.551-12.348-29.899 0-56.135 4.116-78.708 12.348s-40.961 19.308-55.163 33.227c-14.202 13.92-25.713 31.132-34.533 51.637s-14.949 41.908-18.388 64.21c-3.438 22.301-5.158 47.222-5.158 74.761v0zM2351.096 144.464v537.923h67.272v-75.884c8.372 27.839 23.47 48.718 45.297 62.638s44.4 21.179 67.721 21.777v-67.802c-3.289 1.197-6.727 1.796-10.315 1.796-68.468 0-102.702-26.342-102.702-79.027v-401.422h-67.272zM1973.923 392.322v74.986c0.299 37.418 2.99 69.822 8.073 97.212s11.735 49.317 19.957 65.781c8.222 16.464 18.836 29.56 31.842 39.289s26.386 16.314 40.139 19.757c13.753 3.442 29.899 5.164 48.436 5.164 48.137 0 82.745-17.063 103.823-51.188s31.618-88.007 31.618-161.646c0-22.451-0.299-40.861-0.897-55.229h-215.271v-82.17c0-35.323 1.719-64.284 5.158-86.885s8.895-39.588 16.37-50.964c7.475-11.375 15.697-19.008 24.666-22.9s20.331-5.837 34.085-5.837c20.032 0 36.85 10.103 50.454 30.309s20.555 53.957 20.854 101.254h62.787c-1.794-20.356-4.186-38.466-7.176-54.331s-7.699-31.731-14.127-47.596c-6.428-15.865-14.351-29.036-23.769-39.514s-21.602-19.008-36.551-25.594c-14.949-6.586-32.141-9.878-51.575-9.878-37.972 0-67.496 7.558-88.575 22.675s-36.551 41.459-46.418 79.027c-9.867 37.568-14.501 90.327-13.903 158.279v0zM2042.092 459.674h148.896c-0.299 11.974-0.299 24.097 0 36.37s0.149 24.621-0.448 37.044c-0.598 12.423-1.42 24.322-2.467 35.697s-3.065 21.927-6.054 31.656c-2.99 9.729-6.727 18.185-11.212 25.37s-10.614 12.872-18.388 17.063c-7.774 4.191-16.743 6.286-26.909 6.286-16.444 0-29.973-2.993-40.588-8.98s-18.836-13.021-24.666-21.104c-5.83-8.082-10.091-21.702-12.782-40.861s-4.261-35.996-4.709-50.514c-0.448-14.518-0.673-37.193-0.673-68.026v0zM1804.397 144.464v50.739c-26.909-41.909-63.086-62.862-108.532-62.862-8.073 0-15.398 0.674-21.976 2.021s-13.903 4.191-21.976 8.531c-8.073 4.341-15.248 10.178-21.527 17.512s-12.557 17.512-18.836 30.533c-6.279 13.022-11.436 28.288-15.473 45.8s-7.325 39.289-9.867 65.332c-2.541 26.043-3.812 55.229-3.812 87.558v42.657c0 46.399 2.467 86.286 7.4 119.663s10.988 59.046 18.163 77.007c7.176 17.961 16.444 32.105 27.806 42.432s21.826 16.763 31.394 19.308c9.568 2.544 20.78 3.817 33.636 3.817 18.836 0 37.299-5.313 55.387-15.94s34.159-26.267 48.212-46.922v285.575h67.272v-772.76h-67.272zM1804.397 236.513v354.724c-31.992 35.622-62.040 53.433-90.145 53.433-6.578 0-12.034-0.599-16.37-1.796s-9.269-3.891-14.8-8.082c-5.531-4.191-10.016-11.001-13.454-20.43s-6.877-21.702-10.315-36.819c-3.438-15.117-5.905-34.948-7.4-59.495s-2.242-53.283-2.242-86.211v-42.657c0-28.139 0.673-53.134 2.018-74.986s3.065-39.963 5.158-54.331c2.093-14.369 4.933-26.567 8.521-36.595s7.026-17.736 10.315-23.124c3.289-5.388 7.549-9.429 12.782-12.123s9.717-4.341 13.454-4.939c3.737-0.599 8.596-0.898 14.576-0.898 13.454 0 28.105 5.014 43.951 15.042s30.497 23.124 43.951 39.289v0zM1414.667 144.464v537.923h67.272v-537.923h-67.272zM1414.667 805.418v80.374h67.272v-80.374h-67.272zM1153.651 144.464l-121.987 537.923h65.478l95.975-476.857 87.005 476.857h64.133l-112.12-537.923h-78.484zM760.333 427.345v-27.839c0-84.416 4.933-142.488 14.8-174.219s29.899-47.596 60.096-47.596c30.198 0 50.23 15.865 60.096 47.596s14.8 89.803 14.8 174.219v27.839c0 28.438-0.299 52.385-0.897 71.843s-1.869 38.092-3.812 55.903c-1.943 17.811-4.634 32.105-8.073 42.881s-7.923 20.281-13.454 28.513c-5.531 8.232-12.258 14.069-20.182 17.512s-17.416 5.164-28.479 5.164c-11.063 0-20.555-1.721-28.479-5.164s-14.725-9.28-20.406-17.512c-5.681-8.232-10.166-17.661-13.454-28.288s-5.905-24.995-7.848-43.106c-1.943-18.11-3.214-36.745-3.812-55.903s-0.897-43.106-0.897-71.843v0zM693.061 399.506v27.839c0 23.948 0.149 42.282 0.448 55.005s1.271 30.084 2.915 52.086c1.644 22.002 4.186 39.139 7.624 51.413s8.596 26.342 15.473 42.208c6.877 15.865 15.323 27.914 25.339 36.146s22.648 15.341 37.897 21.328c15.248 5.987 32.739 8.98 52.472 8.98s37.224-2.993 52.472-8.98c15.248-5.987 27.881-13.096 37.897-21.328s18.462-20.281 25.339-36.146c6.877-15.865 12.034-29.934 15.473-42.208s5.98-29.411 7.624-51.413c1.644-22.002 2.616-39.364 2.915-52.086s0.448-31.057 0.448-55.005v-27.839c0-20.056-0.075-35.173-0.224-45.351s-0.598-24.322-1.345-42.432c-0.747-18.11-1.943-32.105-3.588-41.983s-4.111-22.151-7.4-36.819c-3.289-14.668-7.25-26.043-11.885-34.125s-10.539-16.988-17.715-26.717c-7.176-9.729-15.398-17.063-24.666-22.002s-20.256-9.13-32.963-12.572c-12.707-3.442-26.834-5.164-42.381-5.164s-29.674 1.721-42.381 5.164c-12.707 3.442-23.695 7.633-32.963 12.572s-17.491 12.273-24.666 22.002c-7.176 9.729-13.081 18.634-17.715 26.717s-8.596 19.457-11.885 34.125c-3.289 14.668-5.755 26.941-7.4 36.819s-2.84 23.873-3.588 41.983c-0.747 18.11-1.196 32.254-1.345 42.432s-0.224 25.295-0.224 45.351v0zM470.614 144.464v537.923h67.272v-75.884c8.372 27.839 23.47 48.718 45.297 62.638s44.4 21.179 67.721 21.777v-67.802c-3.289 1.197-6.727 1.796-10.315 1.796-68.468 0-102.702-26.342-102.702-79.027v-401.422h-67.272zM32 144.464v772.76h188.811c26.909 0 50.828-3.667 71.757-11.001s38.27-17.287 52.024-29.86c13.753-12.573 25.115-27.839 34.085-45.8s15.323-36.894 19.060-56.801c3.737-19.907 5.606-41.384 5.606-64.434 0-23.648-1.57-45.5-4.709-65.557s-8.97-39.962-17.491-59.719c-8.521-19.757-19.434-36.445-32.739-50.065s-30.87-24.696-52.697-33.227c-21.826-8.531-46.941-12.797-75.345-12.797h-120.193v-343.499h-68.169zM100.169 542.743l128.266-0.449c38.271-0.299 65.628 12.947 82.072 39.738s24.666 68.774 24.666 125.949c0 53.284-8.82 92.348-26.46 117.194s-44.399 37.268-80.278 37.268h-128.266v-319.701z" />
<glyph unicode="&#xe901;" glyph-name="layouts-body-select" d="M904.17 148v600h-784.34v-600h784.34zM992 150c0-22.668-8.852-42.668-26.553-60s-38.126-26-61.277-26h-784.34c-23.15 0-43.576 8.668-61.277 26s-26.553 37.332-26.553 60v598c0 22.668 8.852 42.332 26.553 59s38.126 25 61.277 25h784.34c23.15 0 43.576-8.332 61.277-25s26.553-36.332 26.553-59v-598zM859.234 192h-261.447v513.332h261.447v-513.332zM163.402 705.332v-513.332h391.49v513.332h-391.49zM642.041 661.334v-426.666h172.935v426.666h-172.935z" />
<glyph unicode="&#xe902;" glyph-name="layouts-sidebar-select" d="M904.17 148v600h-784.34v-600h784.34zM992 150c0-22.668-8.852-42.668-26.553-60s-38.126-26-61.277-26h-784.34c-23.15 0-43.576 8.668-61.277 26s-26.553 37.332-26.553 60v598c0 22.668 8.852 42.332 26.553 59s38.126 25 61.277 25h784.34c23.15 0 43.576-8.332 61.277-25s26.553-36.332 26.553-59v-598zM859.234 192v513.332h-261.447v-513.332h261.447zM163.402 705.332h391.49v-513.332h-391.49v513.332zM207.66 661.334v-426.666h305.021v426.666h-305.021z" />
<glyph unicode="&#xe903;" glyph-name="layouts" d="M904.17 148v600h-784.34v-600h784.34zM992 150c0-22.668-8.852-42.668-26.553-60s-38.126-26-61.277-26h-784.34c-23.15 0-43.576 8.668-61.277 26s-26.553 37.332-26.553 60v598c0 22.668 8.852 42.332 26.553 59s38.126 25 61.277 25h784.34c23.15 0 43.576-8.332 61.277-25s26.553-36.332 26.553-59v-598zM859.234 192h-261.447v513.332h261.447v-513.332zM163.402 705.332v-513.332h391.49v513.332h-391.49z" />
<glyph unicode="&#xe904;" glyph-name="threed" d="M512-32l-448 240v480l448 240 448-240v-480l-448-240zM826.533 324.25l-284.667 141.562v312.188c0 8.125-2.956 15.156-8.867 21.094s-12.911 8.906-21 8.906c-8.089 0-15.089-2.969-21-8.906s-8.867-12.969-8.867-21.094v-312.188l-284.667-141.562c-6.844-4.375-11.356-10.625-13.533-18.75s-1.244-15.625 2.8-22.5c4.044-6.875 9.956-11.406 17.733-13.594s15.089-1.406 21.933 2.344l285.6 142.5 285.6-142.5c6.844-3.75 14.156-4.531 21.933-2.344s13.689 6.719 17.733 13.594c4.044 6.875 4.978 14.375 2.8 22.5s-6.689 14.375-13.533 18.75v0z" />
<glyph unicode="&#xe905;" glyph-name="user-id-card" d="M609.462 337.043c14.619-8.116 21.929-21.101 21.929-38.957v-163.13c0-25.971-11.37-38.957-34.112-38.957h-531.168c-22.741 0-34.112 12.985-34.112 38.957v163.13c0 19.478 7.31 32.464 21.929 38.957l207.107 94.957c-24.366 16.232-44.67 39.768-60.914 70.609-14.619 32.464-21.929 61.681-21.929 87.652 0 17.855 2.437 34.898 7.31 51.13 9.746 37.334 28.020 67.768 54.822 91.304s57.259 35.304 91.371 35.304c35.736 0 67.005-12.174 93.807-36.522s44.264-55.188 52.386-92.522c4.873-14.609 7.31-30.84 7.31-48.696 0-29.218-6.497-56.811-19.492-82.783-14.619-32.464-34.924-56.812-60.914-73.043l60.914-29.217 143.756-68.174zM970.071 497.739c14.619 0 21.929-7.304 21.929-21.913v-80.348c0-14.609-7.31-21.913-21.929-21.913h-307.005c-8.122 8.116-17.056 14.609-26.802 19.478l-129.137 60.87c1.624 3.246 4.467 7.71 8.528 13.391s6.904 10.145 8.528 13.391c1.624 1.623 2.437 4.464 2.437 8.522s0.812 6.899 2.437 8.522h441.015zM992 227.478v-80.348c0-14.609-7.31-21.913-21.929-21.913h-277.766v124.174h277.766c14.619 0 21.929-7.304 21.929-21.913zM543.675 621.913c-1.624 3.246-2.843 8.522-3.655 15.826s-1.218 12.58-1.218 15.826c-6.497 30.841-21.117 61.681-43.858 92.522h475.127c14.619 0 21.929-7.304 21.929-21.913v-80.348c0-14.609-7.31-21.913-21.929-21.913h-426.396z" />
<glyph unicode="&#xe906;" glyph-name="users" d="M783.902 377.6c13.088-6.519 19.632-18.252 19.632-35.2v-160.356c0-10.43-3.272-19.556-9.816-27.378s-14.397-11.733-23.558-11.733h-520.245c-9.162 0-17.014 3.911-23.558 11.733s-9.816 16.948-9.816 27.378v160.356c0 15.645 7.198 27.378 21.595 35.2l147.239 68.444 56.933 25.422c-28.794 18.252-49.734 41.067-62.822 68.444-13.088 28.682-19.632 57.363-19.632 86.044 0 13.037 2.618 29.985 7.853 50.844 10.47 35.2 28.793 64.533 54.969 88s55.624 35.2 88.344 35.2c34.029 0 64.131-12.059 90.307-36.178s43.845-54.429 53.006-90.933c3.926-15.645 5.89-31.289 5.89-46.933 0-29.985-5.89-56.711-17.669-80.178-14.397-32.593-34.683-56.711-60.859-72.356l60.859-29.333 141.35-66.489zM326.479 473.422l-109.939-50.844c-32.72-15.645-49.080-42.37-49.080-80.178v-136.889h-107.975c-18.323 0-27.485 10.43-27.485 31.289v129.067c0 14.341 5.89 24.118 17.669 29.333l162.945 76.267c-43.19 26.074-64.785 67.792-64.785 125.156 0 39.111 11.779 72.355 35.337 99.733s52.352 41.067 86.38 41.067c19.632 0 39.264-6.518 58.896-19.556-11.779-27.378-17.669-58.015-17.669-91.911 0-50.845 13.088-95.17 39.264-132.978-5.235-5.215-13.088-11.733-23.558-19.556zM976.294 395.2c10.47-6.519 15.706-16.296 15.706-29.333v-129.067c0-20.859-8.507-31.289-25.521-31.289h-113.865v136.889c0 39.111-15.705 65.837-47.117 80.178l-106.012 48.889c-10.47 6.519-19.632 14.341-27.485 23.467 24.867 39.111 37.301 82.785 37.301 131.022 0 35.2-5.235 65.185-15.706 89.956 18.323 14.341 39.264 21.511 62.822 21.511 32.72 0 60.859-13.689 84.417-41.067s35.337-60.622 35.337-99.733c0-56.060-20.94-97.126-62.822-123.2l162.945-78.222z" />
<glyph unicode="&#xe907;" glyph-name="donut-00" d="M512.080 928c265.081-0.044 479.942-214.959 479.92-480.040s-214.919-479.96-480-479.96c-265.081 0-479.978 214.879-480 479.96s214.839 479.996 479.92 480.040v-160c-176.715-0.044-319.942-143.324-319.92-320.040s143.284-319.96 320-319.96c176.716 0 319.978 143.245 320 319.96s-143.205 319.996-319.92 320.040z" />
<glyph unicode="&#xe908;" d="M511.968 928c50.364 0 100.413-7.928 148.312-23.492l-49.437-152.16c-31.932 10.376-65.299 15.661-98.875 15.661z" />
<glyph unicode="&#xe909;" d="M660.28 904.508c238.205-77.402 376.845-324.972 318.375-568.528s-294.387-401.199-541.767-362.016c-247.38 39.183-423.039 262.017-403.388 511.721s228.004 442.314 478.469 442.314v-159.991c-166.976 0-305.878-128.406-318.979-294.876s104.005-315.025 268.925-341.148c164.92-26.122 322.199 78.973 361.178 241.344s-53.446 327.418-212.25 379.019z" />
<glyph unicode="&#xe90a;" d="M512 928c101.357 0 200.112-32.088 282.112-91.665l-94.037-129.433c-54.666 39.718-120.503 61.11-188.075 61.11z" />
<glyph unicode="&#xe90b;" d="M794.112 836.335c190.999-138.771 252.715-395.841 145.533-606.2s-351.428-311.531-575.96-238.574c-224.533 72.956-362.666 298.373-325.733 531.557s237.961 404.882 474.048 404.882v-159.988c-157.392 0-291.411-114.465-316.032-269.921s67.467-305.734 217.156-354.372c149.688-48.638 312.519 18.81 383.973 159.050s30.31 311.619-97.022 404.133z" />
<glyph unicode="&#xe90c;" d="M512.023 928c153.643 0 298-73.555 388.309-197.858l-129.436-94.043c-60.206 82.868-156.444 131.905-258.873 131.905z" />
<glyph unicode="&#xe90d;" d="M900.332 730.142c130.442-179.543 120.794-425.102-23.332-593.857s-385.148-216.698-582.881-115.945c-197.734 100.753-300.616 323.928-248.81 539.723s244.793 367.937 466.714 367.937v-159.996c-147.948 0-276.605-101.428-311.143-245.291s34.051-292.647 165.873-359.815c131.822-67.168 292.503-35.206 388.588 77.297s102.516 276.209 15.555 395.904z" />
<glyph unicode="&#xe90e;" d="M512 928c207.934 0 392.221-133.901 456.476-331.672l-152.159-49.443c-42.837 131.847-165.694 221.115-304.317 221.115z" />
<glyph unicode="&#xe90f;" d="M968.476 596.328c64.255-197.771-6.136-414.427-174.358-536.656s-396.013-122.229-564.235 0c-168.222 122.229-238.614 338.885-174.358 536.656s248.542 331.672 456.476 331.672v-160c-138.623 0-261.48-89.267-304.317-221.115s4.091-276.285 116.239-357.771c112.148-81.486 264.009-81.486 376.157 0s159.076 225.924 116.239 357.771z" />
<glyph unicode="&#xe910;" d="M512 928c265.097 0 480-214.903 480-480h-160c0 176.731-143.269 320-320 320z" />
<glyph unicode="&#xe911;" d="M992 448c0-265.097-214.903-480-480-480s-480 214.903-480 480c0 265.097 214.903 480 480 480v-160c-176.731 0-320-143.269-320-320s143.269-320 320-320c176.731 0 320 143.269 320 320z" />
<glyph unicode="&#xe912;" d="M512.013 928c153.645 0 298.005-73.552 388.315-197.849s115.656-284.314 68.177-430.434l-152.164 49.439c31.653 97.413 14.756 204.091-45.451 286.956s-156.447 131.899-258.877 131.899z" />
<glyph unicode="&#xe913;" d="M968.504 299.718c-75.915-233.632-315.99-372.234-556.286-321.159s-403.239 275.337-377.56 519.647c25.679 244.309 231.69 429.795 477.354 429.795v-159.988c-163.776 0-301.117-123.657-318.236-286.53s91.509-312.381 251.707-346.431c160.198-34.050 320.248 58.352 370.857 214.106z" />
<glyph unicode="&#xe914;" d="M512.023 928c180.489 0 345.72-101.255 427.661-262.073s66.736-354.011-39.353-500.031l-129.436 94.042c70.726 97.347 80.862 226.142 26.235 333.354s-164.781 174.716-285.107 174.716z" />
<glyph unicode="&#xe915;" d="M900.331 165.896c-133.206-183.344-376.5-248.535-583.531-156.358s-321.381 316.603-274.263 538.276c47.118 221.674 242.862 380.186 469.486 380.186v-159.993c-151.083 0-281.579-105.675-312.991-253.457s44.821-297.4 182.842-358.851c138.021-61.451 300.217-17.991 389.021 104.239z" />
<glyph unicode="&#xe916;" d="M512 928c207.934 0 392.221-133.901 456.476-331.672s-6.136-414.427-174.358-536.656l-94.039 129.443c112.148 81.486 159.076 225.924 116.239 357.771s-165.694 221.115-304.317 221.115z" />
<glyph unicode="&#xe917;" d="M794.118 59.672c-168.222-122.229-396.013-122.229-564.235 0s-238.614 338.885-174.358 536.656c64.255 197.771 248.542 331.672 456.476 331.672v-160c-138.623 0-261.48-89.267-304.317-221.115s4.091-276.285 116.239-357.771c112.148-81.486 264.009-81.486 376.157 0z" />
<glyph unicode="&#xe918;" d="M511.983 928c236.096 0 437.131-171.707 474.065-404.904s-101.204-458.626-325.745-531.586l-49.44 152.166c149.694 48.64 241.785 198.926 217.163 354.39s-158.646 269.936-316.043 269.936z" />
<glyph unicode="&#xe919;" d="M660.303-8.49c-180.288-58.581-378.166-5.558-505.010 135.322s-158.891 343.223-81.788 516.407c77.104 173.184 248.912 284.761 438.478 284.761v-159.997c-126.378 0-240.916-74.385-292.319-189.841s-30.038-250.351 54.525-344.271c84.563-93.92 216.481-129.269 336.674-90.215z" />
<glyph unicode="&#xe91a;" d="M512 928c265.097 0 480-214.903 480-480s-214.903-480-480-480v160c176.731 0 320 143.269 320 320s-143.269 320-320 320z" />
<glyph unicode="&#xe91b;" d="M512-32c-265.097 0-480 214.903-480 480s214.903 480 480 480v-160c-176.731 0-320-143.269-320-320s143.269-320 320-320z" />
<glyph unicode="&#xe91c;" d="M512.017 928c189.566 0 361.375-111.577 438.478-284.761s45.057-375.526-81.788-516.407c-126.845-140.88-324.722-193.903-505.010-135.322l49.44 152.166c120.192-39.054 252.11-3.706 336.674 90.215s105.928 228.815 54.525 344.271c-51.402 115.456-165.941 189.841-292.319 189.841z" />
<glyph unicode="&#xe91d;" d="M363.697-8.49c-224.54 72.96-362.678 298.388-325.745 531.586s237.969 404.904 474.065 404.904v-159.997c-157.397 0-291.421-114.471-316.043-269.936s67.47-305.75 217.163-354.39z" />
<glyph unicode="&#xe91e;" d="M512 928c207.934 0 392.221-133.901 456.476-331.672s-6.136-414.427-174.358-536.656c-168.222-122.229-396.013-122.229-564.235 0l94.039 129.443c112.148-81.486 264.009-81.486 376.157 0s159.076 225.924 116.239 357.771c-42.837 131.847-165.694 221.115-304.317 221.115z" />
<glyph unicode="&#xe91f;" d="M229.882 59.672c-168.222 122.229-238.614 338.885-174.358 536.656s248.542 331.672 456.476 331.672v-160c-138.623 0-261.48-89.267-304.317-221.115s4.091-276.285 116.239-357.771z" />
<glyph unicode="&#xe920;" d="M511.977 928c226.624 0 422.369-158.512 469.486-380.186s-67.232-446.099-274.263-538.276c-207.031-92.177-450.325-26.986-583.531 156.358l129.436 94.042c88.804-122.23 251-165.69 389.021-104.239s214.254 211.068 182.842 358.851c-31.412 147.783-161.908 253.457-312.991 253.457z" />
<glyph unicode="&#xe921;" d="M123.669 165.896c-106.089 146.020-121.293 339.212-39.353 500.031s247.172 262.073 427.661 262.073v-159.993c-120.326 0-230.48-67.503-285.107-174.716s-44.491-236.007 26.235-333.354z" />
<glyph unicode="&#xe922;" d="M511.987 928c245.665 0 451.675-185.486 477.354-429.795s-137.264-468.572-377.56-519.647c-240.296-51.075-480.371 87.527-556.286 321.159l152.164 49.439c50.61-155.755 210.66-248.156 370.857-214.106s268.826 183.558 251.707 346.431c-17.119 162.873-154.46 286.53-318.236 286.53z" />
<glyph unicode="&#xe923;" d="M55.496 299.718c-47.479 146.12-22.134 306.137 68.177 430.434s234.67 197.849 388.315 197.849v-159.988c-102.43 0-198.67-49.035-258.877-131.899s-77.104-189.543-45.451-286.956z" />
<glyph unicode="&#xe924;" d="M512 928c265.097 0 480-214.903 480-480s-214.903-480-480-480c-265.097 0-480 214.903-480 480h160c0-176.731 143.269-320 320-320s320 143.269 320 320c0 176.731-143.269 320-320 320z" />
<glyph unicode="&#xe925;" d="M32 448c0 265.097 214.903 480 480 480v-160c-176.731 0-320-143.269-320-320z" />
<glyph unicode="&#xe926;" d="M512 928c207.934 0 392.221-133.901 456.476-331.672s-6.136-414.427-174.358-536.656c-168.222-122.229-396.013-122.229-564.235 0s-238.614 338.885-174.358 536.656l152.159-49.443c-42.837-131.847 4.091-276.285 116.239-357.771s264.009-81.486 376.157 0c112.148 81.486 159.076 225.924 116.239 357.771s-165.694 221.115-304.317 221.115z" />
<glyph unicode="&#xe927;" d="M55.524 596.328c64.255 197.771 248.542 331.672 456.476 331.672v-160c-138.623 0-261.48-89.267-304.317-221.115z" />
<glyph unicode="&#xe928;" d="M511.977 928c221.922 0 414.908-152.142 466.714-367.937s-51.076-438.97-248.81-539.723c-197.734-100.753-438.755-52.809-582.881 115.945s-153.774 414.314-23.332 593.857l129.436-94.043c-86.961-119.695-80.53-283.401 15.555-395.904s256.765-144.465 388.588-77.297c131.822 67.168 200.411 215.952 165.873 359.815s-163.195 245.291-311.143 245.291z" />
<glyph unicode="&#xe929;" d="M123.668 730.142c90.309 124.303 234.666 197.858 388.309 197.858v-159.996c-102.429 0-198.667-49.037-258.873-131.905z" />
<glyph unicode="&#xe92a;" d="M512 928c236.088 0 437.116-171.697 474.048-404.882s-101.201-458.601-325.733-531.557c-224.533-72.956-468.779 28.215-575.96 238.574s-45.466 467.429 145.533 606.2l94.037-129.433c-127.333-92.514-168.477-263.894-97.022-404.133s234.285-207.687 383.973-159.050c149.688 48.638 241.777 198.915 217.156 354.372s-158.641 269.921-316.032 269.921z" />
<glyph unicode="&#xe92b;" d="M229.888 836.335c82 59.577 180.755 91.665 282.112 91.665v-159.988c-67.571 0-133.408-21.392-188.075-61.11z" />
<glyph unicode="&#xe92c;" d="M512.032 928c250.464 0 458.817-192.61 478.469-442.314s-156.008-472.538-403.388-511.721c-247.38-39.183-483.298 118.46-541.767 362.016s80.169 491.127 318.375 568.528l49.437-152.16c-158.804-51.601-251.23-216.648-212.25-379.019s196.258-267.466 361.178-241.344c164.92 26.122 282.026 174.678 268.925 341.148s-152.003 294.876-318.979 294.876z" />
<glyph unicode="&#xe92d;" d="M363.72 904.508c47.899 15.564 97.948 23.492 148.312 23.492v-159.991c-33.576 0-66.942-5.285-98.875-15.661z" />
<glyph unicode="&#xe92e;" glyph-name="donut-100" d="M512.080 928c265.081-0.044 479.942-214.959 479.92-480.040s-214.919-479.96-480-479.96c-265.081 0-479.978 214.879-480 479.96s214.839 479.996 479.92 480.040v-160c-176.715-0.044-319.942-143.324-319.92-320.040s143.284-319.96 320-319.96c176.716 0 319.978 143.245 320 319.96s-143.205 319.996-319.92 320.040z" />
<glyph unicode="&#xe92f;" glyph-name="loading-00" d="M512-32c-265.097 0-480 214.903-480 480s214.903 480 480 480c265.097 0 480-214.903 480-480s-214.903-480-480-480zM512 58c215.391 0 390 174.609 390 390s-174.609 390-390 390c-215.391 0-390-174.609-390-390s174.609-390 390-390z" />
<glyph unicode="&#xe930;" glyph-name="loading-05" d="M512-32c265.097 0 480 214.903 480 480s-214.903 480-480 480c-265.097 0-480-214.903-480-480s214.903-480 480-480zM630.154 819.101c189.768-62.27 300.215-261.441 253.635-457.382s-234.525-322.765-431.602-291.242c-197.077 31.523-337.016 210.793-321.361 411.681s181.641 355.843 381.174 355.843v-386.139l118.154 367.24z" />
<glyph unicode="&#xe931;" glyph-name="loading-10" d="M512-32c265.097 0 480 214.903 480 480s-214.903 480-480 480c-265.097 0-480-214.903-480-480s214.903-480 480-480zM736.741 764.254c152.157-111.643 201.323-318.459 115.938-487.696s-279.961-250.631-458.833-191.936c-178.871 58.694-288.914 240.045-259.492 427.645s189.569 325.733 377.646 325.733v-386.139l224.741 312.393z" />
<glyph unicode="&#xe932;" glyph-name="loading-15" d="M512-32c265.097 0 480 214.903 480 480s-214.903 480-480 480c-265.097 0-480-214.903-480-480s214.903-480 480-480zM828.254 678.828c104.94-144.438 97.179-341.985-18.771-477.744s-309.85-174.328-468.925-93.275c-159.076 81.053-241.844 260.592-200.166 434.194s196.935 295.996 375.47 295.996v-386.139l312.393 226.967z" />
<glyph unicode="&#xe933;" glyph-name="loading-20" d="M512-32c265.097 0 480 214.903 480 480s-214.903 480-480 480c-265.097 0-480-214.903-480-480s214.903-480 480-480zM875.639 568.517c51.187-160.689-4.888-336.722-138.898-436.033s-315.473-99.311-449.483 0c-134.010 99.311-190.085 275.344-138.898 436.033s197.994 269.483 363.639 269.483v-390l363.639 120.517z" />
<glyph unicode="&#xe934;" glyph-name="loading-25" d="M512-32c265.097 0 480 214.903 480 480s-214.903 480-480 480c-265.097 0-480-214.903-480-480s214.903-480 480-480zM902 448c0-215.391-174.609-390-390-390s-390 174.609-390 390c0 215.391 174.609 390 390 390v-390h390z" />
<glyph unicode="&#xe935;" glyph-name="loading-30" d="M512-32c265.097 0 480 214.903 480 480s-214.903 480-480 480c-265.097 0-480-214.903-480-480s214.903-480 480-480zM883.101 332.538c-61.072-187.96-254.208-299.467-447.522-258.377s-324.399 221.513-303.741 418.063c20.658 196.55 186.39 345.776 384.023 345.776v-386.139l367.24-119.323z" />
<glyph unicode="&#xe936;" glyph-name="loading-35" d="M512-32c265.097 0 480 214.903 480 480s-214.903 480-480 480c-265.097 0-480-214.903-480-480s214.903-480 480-480zM828.254 224.895c-107.164-147.499-302.893-199.944-469.449-125.789s-258.55 254.704-220.644 433.038c37.906 178.334 195.382 305.856 377.701 305.856v-386.139l312.393-226.967z" />
<glyph unicode="&#xe937;" glyph-name="loading-40" d="M512-32c265.097 0 480 214.903 480 480s-214.903 480-480 480c-265.097 0-480-214.903-480-480s214.903-480 480-480zM736.741 132.483c-134.010-99.311-315.473-99.311-449.483 0s-190.085 275.344-138.898 436.033c51.187 160.689 197.994 269.483 363.639 269.483v-390l224.741-315.517z" />
<glyph unicode="&#xe938;" glyph-name="loading-45" d="M512-32c265.097 0 480 214.903 480 480s-214.903 480-480 480c-265.097 0-480-214.903-480-480s214.903-480 480-480zM630.154 84.622c-143.62-47.127-301.251-4.472-402.297 108.862s-126.575 276.113-65.153 415.434c61.422 139.321 198.286 229.082 349.297 229.082v-386.139l118.154-367.24z" />
<glyph unicode="&#xe939;" glyph-name="loading-50" d="M512-32c265.097 0 480 214.903 480 480s-214.903 480-480 480c-265.097 0-480-214.903-480-480s214.903-480 480-480zM512 58c-215.391 0-390 174.609-390 390s174.609 390 390 390v-780z" />
<glyph unicode="&#xe93a;" glyph-name="loading-55" d="M512-32c265.097 0 480 214.903 480 480s-214.903 480-480 480c-265.097 0-480-214.903-480-480s214.903-480 480-480zM393.846 84.622c-178.871 58.694-288.914 240.045-259.492 427.645s189.569 325.733 377.646 325.733v-386.139l-118.154-367.24z" />
<glyph unicode="&#xe93b;" glyph-name="loading-60" d="M512-32c265.097 0 480 214.903 480 480s-214.903 480-480 480c-265.097 0-480-214.903-480-480s214.903-480 480-480zM287.259 132.483c-134.010 99.311-190.085 275.344-138.898 436.033s197.994 269.483 363.639 269.483v-390l-224.741-315.517z" />
<glyph unicode="&#xe93c;" glyph-name="loading-65" d="M512-32c265.097 0 480 214.903 480 480s-214.903 480-480 480c-265.097 0-480-214.903-480-480s214.903-480 480-480zM195.746 224.895c-85.348 117.472-97.58 272.893-31.659 402.27s198.849 210.835 344.052 210.835v-386.139l-312.393-226.967z" />
<glyph unicode="&#xe93d;" glyph-name="loading-70" d="M512-32c265.097 0 480 214.903 480 480s-214.903 480-480 480c-265.097 0-480-214.903-480-480s214.903-480 480-480zM140.899 332.538c-38.196 117.555-17.806 246.292 54.847 346.29s188.788 159.172 312.393 159.172v-386.139l-367.24-119.323z" />
<glyph unicode="&#xe93e;" glyph-name="loading-75" d="M512-32c265.097 0 480 214.903 480 480s-214.903 480-480 480c-265.097 0-480-214.903-480-480s214.903-480 480-480zM122 448c0 215.391 174.609 390 390 390v-390h-390z" />
<glyph unicode="&#xe93f;" glyph-name="loading-80" d="M512-32c265.097 0 480 214.903 480 480s-214.903 480-480 480c-265.097 0-480-214.903-480-480s214.903-480 480-480zM148.361 568.517c51.187 160.689 197.994 269.483 363.639 269.483v-390l-363.639 120.517z" />
<glyph unicode="&#xe940;" glyph-name="loading-85" d="M512-32c265.097 0 480 214.903 480 480s-214.903 480-480 480c-265.097 0-480-214.903-480-480s214.903-480 480-480zM195.746 678.828c72.653 99.998 188.788 159.172 312.393 159.172v-386.139l-312.393 226.967z" />
<glyph unicode="&#xe941;" glyph-name="loading-90" d="M512-32c265.097 0 480 214.903 480 480s-214.903 480-480 480c-265.097 0-480-214.903-480-480s214.903-480 480-480zM287.259 764.254c65.324 47.931 143.996 73.746 224.741 73.746v-386.139l-224.741 312.393z" />
<glyph unicode="&#xe942;" glyph-name="loading-95" d="M512-32c265.097 0 480 214.903 480 480s-214.903 480-480 480c-265.097 0-480-214.903-480-480s214.903-480 480-480zM393.846 819.101c38.159 12.521 78.031 18.899 118.154 18.899v-386.139l-118.154 367.24z" />
<glyph unicode="&#xe943;" glyph-name="loading-100" d="M992 448c0-265.097-214.903-480-480-480s-480 214.903-480 480c0 265.097 214.903 480 480 480s480-214.903 480-480z" />
<glyph unicode="&#xe944;" glyph-name="users-alt" d="M760.193 192h-496.386l-0.083 26.581c0 53.717 4.138 84.736 65.716 99.413 69.689 16.597 138.384 31.403 105.319 94.251-97.912 186.155-27.892 291.755 77.22 291.755 103.084 0 174.884-101.675 77.22-291.797-32.072-62.464 34.182-77.312 105.319-94.251 61.66-14.677 65.757-45.739 65.757-99.541l-0.083-26.411zM945.226 284.365c-50.619 12.432-97.706 23.321-74.908 69.128 69.415 139.423 18.403 213.974-54.935 213.974-49.638 0-88.21-34.084-88.21-96.954 0-162.827 88.995-73.842 88.132-278.513h176.617l0.078 19.316c0 39.466-2.904 62.286-46.774 73.049zM32.078 192h176.617c-0.824 204.671 88.132 115.644 88.132 278.513 0 62.87-38.572 96.954-88.21 96.954-73.339 0-124.35-74.551-54.896-213.974 22.798-45.849-24.289-56.695-74.908-69.128-43.909-10.763-46.813-33.583-46.813-73.049l0.078-19.316z" />
<glyph unicode="&#xe945;" glyph-name="opacity" d="M780.197 633.835l-268.197 262.165-268.197-262.165c-73.92-72.385-110.88-168.899-110.88-261.701s36.96-190.707 110.88-263.092c73.92-72.385 171.058-109.042 268.197-109.042s194.277 36.656 268.197 109.042c73.92 72.385 110.88 170.291 110.88 263.092s-36.96 189.316-110.88 261.701v0zM227.692 355.43c0.474 92.802 29.378 151.731 83.397 204.164l200.911 200.915 200.911-203.236c54.018-51.969 82.923-109.042 83.397-201.843h-568.615z" />
<glyph unicode="&#xe946;" glyph-name="sys" d="M308.656 323.906c0-30.375-11.062-53.672-33.187-69.891s-53.812-24.328-95.063-24.328c-41.438 0-74.719 6.281-99.844 18.844v57.094c36.563-16.875 70.594-25.312 102.094-25.312 40.688 0 61.031 12.281 61.031 36.844 0 7.875-2.25 14.437-6.75 19.688s-11.906 10.687-22.219 16.312c-10.313 5.625-24.656 12-43.031 19.125-35.813 13.875-60.047 27.75-72.703 41.625s-18.984 31.875-18.984 54c0 26.625 10.734 47.297 32.203 62.016s50.672 22.078 87.609 22.078c36.563 0 71.156-7.406 103.781-22.219l-21.375-49.781c-33.563 13.875-61.781 20.812-84.656 20.812-34.875 0-52.312-9.937-52.312-29.812 0-9.75 4.547-18 13.641-24.75s28.922-16.031 59.484-27.844c25.688-9.938 44.344-19.031 55.969-27.281s20.25-17.766 25.875-28.547c5.625-10.781 8.437-23.672 8.437-38.672v0zM357.529 546.375h72l63.281-176.344c9.563-25.125 15.937-48.75 19.125-70.875h2.25c1.688 10.313 4.781 22.828 9.281 37.547s28.312 84.609 71.438 209.672h71.438l-133.031-352.406c-24.188-64.688-64.5-97.031-120.938-97.031-14.625 0-28.875 1.594-42.75 4.781v52.313c9.938-2.25 21.281-3.375 34.031-3.375 31.875 0 54.281 18.469 67.219 55.406l11.531 29.25-124.875 311.063zM947.246 323.906c0-30.375-11.062-53.672-33.187-69.891s-53.812-24.328-95.063-24.328c-41.438 0-74.719 6.281-99.844 18.844v57.094c36.563-16.875 70.594-25.312 102.094-25.312 40.688 0 61.031 12.281 61.031 36.844 0 7.875-2.25 14.437-6.75 19.688s-11.906 10.687-22.219 16.312c-10.313 5.625-24.656 12-43.031 19.125-35.813 13.875-60.047 27.75-72.703 41.625s-18.984 31.875-18.984 54c0 26.625 10.734 47.297 32.203 62.016s50.672 22.078 87.609 22.078c36.563 0 71.156-7.406 103.781-22.219l-21.375-49.781c-33.563 13.875-61.781 20.812-84.656 20.812-34.875 0-52.313-9.937-52.313-29.812 0-9.75 4.547-18 13.641-24.75s28.922-16.031 59.484-27.844c25.688-9.938 44.344-19.031 55.969-27.281s20.25-17.766 25.875-28.547c5.625-10.781 8.437-23.672 8.437-38.672v0z" />
<glyph unicode="&#xe947;" glyph-name="dia" d="M219.469 228.75c-38.813 0-69.094 14.062-90.844 42.188s-32.625 67.593-32.625 118.406c0 51 11.016 90.703 33.047 119.109s52.547 42.609 91.547 42.609c40.875 0 72-15.094 93.375-45.281h3.375c-3.188 22.313-4.781 39.937-4.781 52.875v113.344h66.375v-437.625h-51.75l-11.531 40.781h-3.094c-21.188-30.938-52.219-46.406-93.094-46.406v0zM237.188 282.188c27.188 0 46.969 7.641 59.344 22.922s18.75 40.078 19.125 74.391v9.281c0 39.188-6.375 67.031-19.125 83.531s-32.719 24.75-59.906 24.75c-23.25 0-41.156-9.422-53.719-28.266s-18.844-45.703-18.844-80.578c0-34.5 6.094-60.797 18.281-78.891s30.469-27.141 54.844-27.141v0zM564.217 234.375h-66.094v311.062h66.094v-311.062zM494.186 627.844c0 11.813 3.234 20.906 9.703 27.281s15.703 9.563 27.703 9.563c11.625 0 20.672-3.187 27.141-9.563s9.703-15.469 9.703-27.281c0-11.25-3.234-20.109-9.703-26.578s-15.516-9.703-27.141-9.703c-12 0-21.234 3.234-27.703 9.703s-9.703 15.328-9.703 26.578v0zM878.028 234.375l-13.219 43.312h-2.25c-15-18.938-30.094-31.828-45.281-38.672s-34.687-10.266-58.5-10.266c-30.563 0-54.422 8.25-71.578 24.75s-25.734 39.844-25.734 70.031c0 32.063 11.906 56.25 35.719 72.562s60.094 25.219 108.844 26.719l53.719 1.688v16.594c0 19.875-4.641 34.734-13.922 44.578s-23.672 14.766-43.172 14.766c-15.938 0-31.219-2.344-45.844-7.031s-28.687-10.219-42.188-16.594l-21.375 47.25c16.875 8.813 35.344 15.516 55.406 20.109s39 6.891 56.812 6.891c39.563 0 69.422-8.625 89.578-25.875s30.234-44.344 30.234-81.281v-209.531h-47.25zM779.59 279.375c24 0 43.266 6.703 57.797 20.109s21.797 32.203 21.797 56.391v27l-39.937-1.688c-31.125-1.125-53.766-6.328-67.922-15.609s-21.234-23.484-21.234-42.609c0-13.875 4.125-24.609 12.375-32.203s20.625-11.391 37.125-11.391v0z" />
<glyph unicode="&#xe948;" glyph-name="minus-square" d="M840.96 685.953v-475.905c0-22.662-3.999-43.658-11.998-62.987s-19.996-36.993-35.993-52.989c-15.997-15.997-33.66-27.994-52.989-35.993s-40.325-11.998-62.987-11.998h-475.905c-22.662 0-43.658 3.999-62.987 11.998s-36.993 19.996-52.989 35.993c-15.997 15.997-27.994 33.66-35.993 52.989s-11.998 40.325-11.998 62.987v475.905c0 22.662 3.999 43.658 11.998 62.987s19.996 36.993 35.993 52.989c15.997 15.997 33.66 27.994 52.989 35.993s40.325 11.998 62.987 11.998h475.905c22.662 0 43.658-3.999 62.987-11.998s36.993-19.996 52.989-35.993c15.997-15.997 27.994-33.66 35.993-52.989s11.998-40.325 11.998-62.987zM736 408v80c0 10.833-3.675 20.208-11.026 28.125s-16.055 11.875-26.114 11.875h-519.96c-10.059 0-18.763-3.958-26.114-11.875s-11.026-17.292-11.026-28.125v-80c0-10.833 3.675-20.208 11.026-28.125s16.055-11.875 26.114-11.875h519.96c10.059 0 18.763 3.958 26.114 11.875s11.026 17.292 11.026 28.125z" />
<glyph unicode="&#xe949;" glyph-name="minus-square-o" d="M720 408v80c0 10.833-3.477 20.208-10.432 28.125s-15.191 11.875-24.708 11.875h-491.96c-9.517 0-17.753-3.958-24.708-11.875s-10.432-17.292-10.432-28.125v-80c0-10.833 3.477-20.208 10.432-28.125s15.191-11.875 24.708-11.875h491.96c9.517 0 17.753 3.958 24.708 11.875s10.432 17.292 10.432 28.125v0zM840.96 685.953v-475.905c0-22.662-3.999-43.658-11.998-62.987s-19.996-36.993-35.993-52.989c-15.997-15.997-33.66-27.994-52.989-35.993s-40.325-11.998-62.987-11.998h-475.905c-22.662 0-43.658 3.999-62.987 11.998s-36.993 19.996-52.989 35.993c-15.997 15.997-27.994 33.66-35.993 52.989s-11.998 40.325-11.998 62.987v475.905c0 22.662 3.999 43.658 11.998 62.987s19.996 36.993 35.993 52.989c15.997 15.997 33.66 27.994 52.989 35.993s40.325 11.998 62.987 11.998h475.905c22.662 0 43.658-3.999 62.987-11.998s36.993-19.996 52.989-35.993c15.997-15.997 27.994-33.66 35.993-52.989s11.998-40.325 11.998-62.987zM676.993 776.935h-475.905c-11.998 0-23.495-2.166-34.493-6.499s-20.829-11.164-29.494-20.496c-9.332-8.665-16.163-18.33-20.496-28.994s-6.499-22.329-6.499-34.993v-475.905c0-12.664 2.166-24.328 6.499-34.993s11.164-20.329 20.496-28.994c8.665-9.332 18.496-16.163 29.494-20.496s22.495-6.499 34.493-6.499h475.905c12.664 0 24.328 2.166 34.993 6.499s20.329 11.164 28.994 20.496c9.332 8.665 16.163 18.33 20.496 28.994s6.499 22.329 6.499 34.993v475.905c0 12.664-2.166 24.328-6.499 34.993s-11.164 20.329-20.496 28.994c-8.665 9.332-18.33 16.163-28.994 20.496s-22.329 6.499-34.993 6.499z" />
</font>
</defs>
</svg>
